<svg width="137" height="121" viewBox="0 0 137 121" fill="none" xmlns="http://www.w3.org/2000/svg">
<path d="M6.62891 94.2579V73.497C6.6285 70.164 7.29718 66.8715 8.58772 63.8522C9.87826 60.8328 11.7592 58.1602 14.0976 56.0231C17.8197 52.629 22.5097 50.7652 27.3557 50.7543H109.578C114.424 50.7652 119.114 52.629 122.836 56.0231C125.186 58.1532 127.08 60.8227 128.382 63.8425C129.684 66.8622 130.363 70.1583 130.371 73.497V94.2579H6.62891Z" fill="#ECB700"/>
<path d="M27.4219 50.7542H109.578C112.284 50.7579 114.964 51.3409 117.466 52.4702L110.837 16.0721C110.142 12.2039 108.234 8.72269 105.442 6.22952C102.65 3.73635 99.1503 2.38778 95.5462 2.41672H41.4533C37.8682 2.41592 34.3941 3.77731 31.6252 6.26809C28.8562 8.75888 26.9642 12.2244 26.2728 16.0721L19.6438 52.3252C22.1198 51.2585 24.7609 50.7251 27.4219 50.7542Z" fill="#87CED9"/>
<path d="M23.4669 31.4192H13.2582C12.0861 31.4192 10.9621 31.9285 10.1333 32.835C9.30448 33.7415 8.83887 34.971 8.83887 36.253V41.0867C8.83887 42.3687 9.30448 43.5982 10.1333 44.5047C10.9621 45.4112 12.0861 45.9205 13.2582 45.9205H20.8153L23.4669 31.4192Z" fill="#ECB700"/>
<path d="M123.742 31.4192H113.577L116.251 45.9205H123.742C124.914 45.9205 126.038 45.4112 126.867 44.5047C127.696 43.5982 128.161 42.3687 128.161 41.0867V36.253C128.161 34.971 127.696 33.7415 126.867 32.835C126.038 31.9285 124.914 31.4192 123.742 31.4192Z" fill="#ECB700"/>
<path d="M15.4678 103.925V113.593C15.4678 114.875 15.9334 116.104 16.7622 117.011C17.591 117.917 18.715 118.427 19.8871 118.427H37.5645C38.7366 118.427 39.8607 117.917 40.6895 117.011C41.5183 116.104 41.9839 114.875 41.9839 113.593V103.925H15.4678Z" fill="#C1C8D1"/>
<path d="M95.0161 103.925V113.593C95.0161 114.875 95.4817 116.104 96.3105 117.011C97.1393 117.917 98.2634 118.427 99.4355 118.427H117.113C118.285 118.427 119.409 117.917 120.238 117.011C121.067 116.104 121.532 114.875 121.532 113.593V103.925H95.0161Z" fill="#C1C8D1"/>
<path d="M2.20972 94.2578H134.79V103.925H2.20972V94.2578Z" fill="#A0A8B2"/>
<path d="M28.7256 84.5902C36.0478 84.5902 41.9837 80.803 41.9837 76.1312C41.9837 71.4595 36.0478 67.6722 28.7256 67.6722C21.4034 67.6722 15.4675 71.4595 15.4675 76.1312C15.4675 80.803 21.4034 84.5902 28.7256 84.5902Z" fill="#FCDE76"/>
<path d="M108.274 84.5902C115.596 84.5902 121.532 80.803 121.532 76.1312C121.532 71.4595 115.596 67.6722 108.274 67.6722C100.952 67.6722 95.0157 71.4595 95.0157 76.1312C95.0157 80.803 100.952 84.5902 108.274 84.5902Z" fill="#FCDE76"/>
<path d="M50.8225 94.2579V70.0892C50.8225 68.8072 51.2881 67.5778 52.1169 66.6713C52.9457 65.7648 54.0698 65.2555 55.2419 65.2555H81.758C82.9301 65.2555 84.0542 65.7648 84.883 66.6713C85.7117 67.5778 86.1773 68.8072 86.1773 70.0892V94.2579H50.8225Z" fill="#C1C8D1"/>
<path d="M109.467 12.0843C108.217 9.20079 106.246 6.76294 103.783 5.05229C101.319 3.34164 98.4639 2.42795 95.5461 2.41675H41.4532C38.5354 2.42795 35.6799 3.34164 33.2167 5.05229C30.7534 6.76294 28.7827 9.20079 27.5322 12.0843H109.467Z" fill="#ECB700"/>
<path d="M134.79 91.841H132.581V73.497C132.586 69.8081 131.848 66.1631 130.42 62.8214C128.992 59.4796 126.908 56.5231 124.316 54.162C122.79 52.7997 121.112 51.6546 119.323 50.7542L118.903 48.3374H123.742C125.5 48.3374 127.186 47.5735 128.429 46.2137C129.673 44.854 130.371 43.0098 130.371 41.0868V36.253C130.371 34.3301 129.673 32.4858 128.429 31.1261C127.186 29.7663 125.5 29.0024 123.742 29.0024H115.323L112.892 15.5888C112.099 11.1952 109.936 7.23911 106.772 4.39599C103.609 1.55288 99.641 -0.000891099 95.5464 3.83405e-07H41.4535C37.359 -0.000891099 33.3912 1.55288 30.2276 4.39599C27.064 7.23911 24.9009 11.1952 24.1076 15.5888L21.6769 29.0024H13.2581C11.4999 29.0024 9.81382 29.7663 8.57063 31.1261C7.32745 32.4858 6.62903 34.3301 6.62903 36.253V41.0868C6.62903 43.0098 7.32745 44.854 8.57063 46.2137C9.81382 47.5735 11.4999 48.3374 13.2581 48.3374H18.2077L17.7879 50.7542C15.9549 51.6757 14.2391 52.8537 12.6835 54.2587C10.0922 56.6198 8.00822 59.5763 6.57987 62.9181C5.15152 66.2598 4.41387 69.9048 4.41935 73.5937V91.841H2.20968C1.62363 91.841 1.06159 92.0957 0.647199 92.5489C0.232805 93.0022 0 93.6169 0 94.2579V103.925C0 104.566 0.232805 105.181 0.647199 105.634C1.06159 106.088 1.62363 106.342 2.20968 106.342H13.2581V113.593C13.2581 115.516 13.9565 117.36 15.1997 118.72C16.4428 120.08 18.129 120.843 19.8871 120.843H37.5645C39.3226 120.843 41.0088 120.08 42.2519 118.72C43.4951 117.36 44.1935 115.516 44.1935 113.593V106.342H92.8064V113.593C92.8064 115.516 93.5049 117.36 94.748 118.72C95.9912 120.08 97.6774 120.843 99.4355 120.843H117.113C118.871 120.843 120.557 120.08 121.8 118.72C123.044 117.36 123.742 115.516 123.742 113.593V106.342H134.79C135.376 106.342 135.938 106.088 136.353 105.634C136.767 105.181 137 104.566 137 103.925V94.2579C137 93.6169 136.767 93.0022 136.353 92.5489C135.938 92.0957 135.376 91.841 134.79 91.841ZM123.742 33.8362C124.328 33.8362 124.89 34.0908 125.304 34.5441C125.719 34.9973 125.952 35.612 125.952 36.253V41.0868C125.952 41.7278 125.719 42.3425 125.304 42.7958C124.89 43.249 124.328 43.5036 123.742 43.5036H117.93L116.185 33.8362H123.742ZM95.5464 4.83374C97.4073 4.83786 99.2465 5.27039 100.944 6.10319C102.642 6.936 104.161 8.15042 105.402 9.66748H31.5984C32.839 8.15042 34.3576 6.936 36.0555 6.10319C37.7535 5.27039 39.5927 4.83786 41.4535 4.83374H95.5464ZM13.2581 43.5036C12.672 43.5036 12.11 43.249 11.6956 42.7958C11.2812 42.3425 11.0484 41.7278 11.0484 41.0868V36.253C11.0484 35.612 11.2812 34.9973 11.6956 34.5441C12.11 34.0908 12.672 33.8362 13.2581 33.8362H20.8152L19.0695 43.5036H13.2581ZM28.4385 16.5314C28.5787 15.8438 28.7557 15.1659 28.9689 14.5012H108.031C108.244 15.1659 108.421 15.8438 108.561 16.5314L114.395 48.9174C112.812 48.5416 111.198 48.3472 109.578 48.3374H27.4221C25.8023 48.3472 24.1879 48.5416 22.605 48.9174L28.4385 16.5314ZM8.83871 73.497C8.8358 70.8269 9.31449 68.1823 10.2474 65.7149C11.1802 63.2474 12.549 61.0054 14.2752 59.1173C16.0014 57.2293 18.0511 55.7322 20.3071 54.7119C22.5631 53.6915 24.9809 53.1679 27.4221 53.1711H109.578C112.019 53.1679 114.437 53.6915 116.693 54.7119C118.949 55.7322 120.999 57.2293 122.725 59.1173C124.451 61.0054 125.82 63.2474 126.753 65.7149C127.686 68.1823 128.164 70.8269 128.161 73.497V91.841H88.3871V70.0892C88.3871 68.1662 87.6887 66.322 86.4455 64.9622C85.2023 63.6025 83.5162 62.8386 81.7581 62.8386H55.2419C53.4838 62.8386 51.7977 63.6025 50.5545 64.9622C49.3113 66.322 48.6129 68.1662 48.6129 70.0892V91.841H8.83871V73.497ZM83.9677 72.5061H53.0323V70.0892C53.0323 69.4482 53.2651 68.8335 53.6795 68.3802C54.0938 67.927 54.6559 67.6723 55.2419 67.6723H81.7581C82.3441 67.6723 82.9062 67.927 83.3205 68.3802C83.7349 68.8335 83.9677 69.4482 83.9677 70.0892V72.5061ZM53.0323 77.3398H83.9677V82.1736H53.0323V77.3398ZM53.0323 87.0073H83.9677V91.841H53.0323V87.0073ZM39.7742 113.593C39.7742 114.234 39.5414 114.849 39.127 115.302C38.7126 115.755 38.1506 116.01 37.5645 116.01H19.8871C19.3011 116.01 18.739 115.755 18.3246 115.302C17.9102 114.849 17.6774 114.234 17.6774 113.593V106.342H39.7742V113.593ZM119.323 113.593C119.323 114.234 119.09 114.849 118.675 115.302C118.261 115.755 117.699 116.01 117.113 116.01H99.4355C98.8494 116.01 98.2874 115.755 97.873 115.302C97.4586 114.849 97.2258 114.234 97.2258 113.593V106.342H119.323V113.593ZM132.581 101.508H4.41935V96.6748H132.581V101.508Z" fill="black"/>
<path d="M28.7258 65.2555C20.0639 65.2555 13.2581 70.0892 13.2581 76.1314C13.2581 82.1735 20.0639 87.0072 28.7258 87.0072C37.3877 87.0072 44.1935 82.1735 44.1935 76.1314C44.1935 70.0892 37.3877 65.2555 28.7258 65.2555ZM28.7258 82.1735C22.2072 82.1735 17.6774 78.9833 17.6774 76.1314C17.6774 73.2795 22.2072 70.0892 28.7258 70.0892C35.2443 70.0892 39.7742 73.2795 39.7742 76.1314C39.7742 78.9833 35.3548 82.1735 28.7258 82.1735Z" fill="black"/>
<path d="M108.274 87.0072C116.936 87.0072 123.742 82.1735 123.742 76.1314C123.742 70.0892 116.936 65.2555 108.274 65.2555C99.612 65.2555 92.8062 70.0892 92.8062 76.1314C92.8062 82.1735 99.612 87.0072 108.274 87.0072ZM108.274 70.0892C114.903 70.0892 119.322 73.2795 119.322 76.1314C119.322 78.9833 114.903 82.1735 108.274 82.1735C101.645 82.1735 97.2255 78.9833 97.2255 76.1314C97.2255 73.2795 101.755 70.0892 108.274 70.0892Z" fill="black"/>
<path d="M42.625 39.3699L55.8884 24.8628L59.0129 28.2802L45.7495 42.7873L42.625 39.3699Z" fill="black"/>
<path d="M60.2939 39.3795L73.5573 24.8725L76.6818 28.2899L63.4184 42.7969L60.2939 39.3795Z" fill="black"/>
<path d="M77.9846 39.3892L91.2481 24.8822L94.3725 28.2996L81.1091 42.8066L77.9846 39.3892Z" fill="black"/>
</svg>
