<svg width="159" height="159" viewBox="0 0 159 159" fill="none" xmlns="http://www.w3.org/2000/svg">
<g clip-path="url(#clip0)">
<path d="M136.286 44.4987C141.767 44.4987 146.21 40.056 146.21 34.5756C146.21 40.056 150.652 44.4987 156.133 44.4987C150.652 44.4987 146.21 48.9415 146.21 54.4219C146.21 48.9415 141.767 44.4987 136.286 44.4987Z" fill="#FCDE76"/>
<path d="M2.32568 44.4987C7.80613 44.4987 12.2489 40.056 12.2489 34.5756C12.2489 40.056 16.6916 44.4987 22.172 44.4987C16.6916 44.4987 12.2489 48.9415 12.2489 54.4219C12.2485 48.9415 7.80582 44.4987 2.32568 44.4987Z" fill="#FCDE76"/>
<path d="M66.8253 14.7295C73.6756 14.7295 79.229 9.17605 79.229 2.32581C79.229 9.17605 84.7825 14.7295 91.6328 14.7295C84.7825 14.7295 79.229 20.283 79.229 27.1333C79.229 20.283 73.6756 14.7295 66.8253 14.7295Z" fill="#FCDE76"/>
<path d="M135.977 86.6716H21.8617L11.3062 101.449C10.1039 103.132 9.45764 105.148 9.45764 107.217V136.287H148.38V107.217C148.38 105.148 147.734 103.132 146.532 101.449L135.977 86.6716Z" fill="#ECB700"/>
<path d="M135.976 86.6717L123.429 51.1194C122.028 47.152 118.278 44.4988 114.071 44.4988H43.7665C39.5593 44.4988 35.8095 47.152 34.4091 51.1194L21.8615 86.6717H135.976Z" fill="#ECB700"/>
<path d="M32.3802 79.2294L41.4272 53.5959C41.7764 52.6061 42.7166 51.941 43.7667 51.941H114.071C115.121 51.941 116.061 52.6061 116.411 53.5962L125.458 79.2294H32.3802Z" fill="#71C4D1"/>
<path d="M43.767 51.941C42.7169 51.941 41.777 52.6061 41.4276 53.5959L32.3802 79.2294H61.7192L87.5471 51.941H43.767Z" fill="#87CED9"/>
<path d="M123.573 126.364C130.423 126.364 135.977 123.032 135.977 118.921C135.977 114.811 130.423 111.479 123.573 111.479C116.723 111.479 111.169 114.811 111.169 118.921C111.169 123.032 116.723 126.364 123.573 126.364Z" fill="#FCDE76"/>
<path d="M128.534 123.883C121.684 123.883 116.131 120.551 116.131 116.441C116.131 114.847 116.968 113.371 118.39 112.16C114.129 113.338 111.169 115.922 111.169 118.922C111.169 123.032 116.722 126.364 123.573 126.364C127.766 126.364 131.471 125.114 133.716 123.202C132.139 123.638 130.385 123.883 128.534 123.883Z" fill="#FCCF6F"/>
<path d="M34.2652 126.364C41.1156 126.364 46.6689 123.032 46.6689 118.921C46.6689 114.811 41.1156 111.479 34.2652 111.479C27.4148 111.479 21.8615 114.811 21.8615 118.921C21.8615 123.032 27.4148 126.364 34.2652 126.364Z" fill="#FCDE76"/>
<path d="M39.2269 123.883C32.3767 123.883 26.8232 120.551 26.8232 116.441C26.8232 114.847 27.661 113.371 29.0831 112.16C24.8214 113.338 21.8615 115.922 21.8615 118.922C21.8615 123.032 27.4149 126.364 34.2652 126.364C38.4588 126.364 42.164 125.114 44.409 123.202C42.8315 123.638 41.0774 123.883 39.2269 123.883Z" fill="#FCCF6F"/>
<path d="M31.7849 156.133H16.9003C15.5302 156.133 14.4194 155.022 14.4194 153.652V146.21H34.2655V153.652C34.2655 155.022 33.1547 156.133 31.7849 156.133Z" fill="#787485"/>
<path d="M126.054 156.133H140.939C142.309 156.133 143.419 155.022 143.419 153.652V146.21H123.573V153.652C123.573 155.022 124.684 156.133 126.054 156.133Z" fill="#787485"/>
<path d="M143.419 146.21H123.573V151.172H143.419V146.21Z" fill="#696578"/>
<path d="M34.2655 146.21H14.4194V151.172H34.2655V146.21Z" fill="#696578"/>
<path d="M101.246 136.287H56.5924V116.441C56.5924 110.96 61.0351 106.518 66.5156 106.518H91.3233C96.8038 106.518 101.247 110.96 101.247 116.441V136.287H101.246Z" fill="#D2D1D6"/>
<path d="M153.343 86.6717H138.458L140.939 76.7485H153.343V86.6717Z" fill="#ECB700"/>
<path d="M4.49658 86.6717H19.3812L16.9006 76.7485H4.49658V86.6717Z" fill="#ECB700"/>
<path d="M138.458 146.21H19.3808C13.9004 146.21 9.45764 141.767 9.45764 136.287H148.38C148.38 141.767 143.938 146.21 138.458 146.21Z" fill="#ECB700"/>
<path d="M34.2653 121.402C35.6354 121.402 36.7462 120.292 36.7462 118.921C36.7462 117.551 35.6354 116.441 34.2653 116.441C32.8951 116.441 31.7844 117.551 31.7844 118.921C31.7844 120.292 32.8951 121.402 34.2653 121.402Z" fill="#FDFAB6"/>
<path d="M123.573 121.402C124.943 121.402 126.054 120.292 126.054 118.921C126.054 117.551 124.943 116.441 123.573 116.441C122.203 116.441 121.092 117.551 121.092 118.921C121.092 120.292 122.203 121.402 123.573 121.402Z" fill="#FDFAB6"/>
<path d="M156.133 42.1729C151.944 42.1729 148.536 38.7648 148.536 34.5756C148.536 33.2909 147.494 32.2498 146.21 32.2498C144.925 32.2498 143.884 33.2909 143.884 34.5756C143.884 38.7648 140.476 42.1729 136.287 42.1729C135.002 42.1729 133.961 43.214 133.961 44.4987C133.961 45.7834 135.002 46.8246 136.287 46.8246C140.476 46.8246 143.884 50.2327 143.884 54.4219C143.884 55.7066 144.925 56.7477 146.21 56.7477C147.494 56.7477 148.536 55.7066 148.536 54.4219C148.536 50.2327 151.944 46.8246 156.133 46.8246C157.418 46.8246 158.459 45.7834 158.459 44.4987C158.459 43.214 157.418 42.1729 156.133 42.1729ZM146.21 47.2482C145.445 46.1932 144.515 45.2635 143.461 44.4987C144.516 43.7337 145.445 42.804 146.21 41.7492C146.975 42.8043 147.905 43.734 148.96 44.4987C147.905 45.2638 146.975 46.1935 146.21 47.2482Z" fill="black"/>
<path d="M9.92317 54.4215C9.92317 55.7062 10.9646 56.7473 12.249 56.7473C13.5334 56.7473 14.5748 55.7062 14.5748 54.4215C14.5748 50.2323 17.9832 46.8242 22.1721 46.8242C23.4565 46.8242 24.498 45.7831 24.498 44.4984C24.498 43.2137 23.4565 42.1726 22.1721 42.1726C17.9832 42.1726 14.5748 38.7645 14.5748 34.5752C14.5748 33.2905 13.5334 32.2494 12.249 32.2494C10.9646 32.2494 9.92317 33.2905 9.92317 34.5752C9.92317 38.7645 6.51476 42.1726 2.32581 42.1726C1.04143 42.1726 0 43.2137 0 44.4984C0 45.7831 1.04143 46.8242 2.32581 46.8242C6.51476 46.8245 9.92317 50.2323 9.92317 54.4215ZM12.2487 41.7489C13.0137 42.8039 13.9431 43.7336 14.9982 44.4984C13.9431 45.2634 13.0134 46.1931 12.2487 47.2479C11.4836 46.1928 10.5542 45.2631 9.49917 44.4984C10.5545 43.7336 11.4836 42.8039 12.2487 41.7489Z" fill="black"/>
<path d="M66.8255 17.0554C72.3824 17.0554 76.9037 21.5764 76.9037 27.1336C76.9037 28.4183 77.9452 29.4594 79.2296 29.4594C80.5142 29.4594 81.5554 28.4183 81.5554 27.1336C81.5554 21.5764 86.0764 17.0554 91.6336 17.0554C92.9183 17.0554 93.9594 16.0142 93.9594 14.7295C93.9594 13.4448 92.9183 12.4037 91.6336 12.4037C86.0764 12.4037 81.5554 7.8827 81.5554 2.32551C81.5551 1.04112 80.5139 0 79.2292 0C77.9449 0 76.9034 1.04112 76.9034 2.32581C76.9034 7.88301 72.3821 12.404 66.8252 12.404C65.5408 12.404 64.4994 13.4452 64.4994 14.7299C64.4994 16.0145 65.5411 17.0554 66.8255 17.0554ZM79.2292 10.2624C80.379 12.0525 81.9063 13.5798 83.6964 14.7295C81.9063 15.8793 80.379 17.4066 79.2292 19.1967C78.0795 17.4066 76.5522 15.8793 74.7618 14.7295C76.5522 13.5798 78.0795 12.0525 79.2292 10.2624Z" fill="black"/>
<path d="M127.356 80.5725C127.792 79.9564 127.902 79.1668 127.651 78.4553L118.604 52.8222C117.927 50.9039 116.105 49.6152 114.071 49.6152H43.7671C41.7328 49.6152 39.9115 50.9039 39.2346 52.8219L30.1876 78.4553C29.6621 79.9443 30.8041 81.5552 32.3807 81.5552H125.458C126.213 81.5552 126.92 81.1884 127.356 80.5725ZM35.6678 76.9036L43.6207 54.3699C43.6418 54.3102 43.7033 54.2666 43.7668 54.2666H114.071C114.135 54.2666 114.196 54.3102 114.218 54.3702L122.171 76.9036H35.6678Z" fill="black"/>
<path d="M108.844 118.921C108.844 124.399 115.313 128.69 123.573 128.69C131.833 128.69 138.303 124.399 138.303 118.921C138.303 113.444 131.833 109.153 123.573 109.153C115.313 109.153 108.844 113.444 108.844 118.921ZM133.651 118.921C133.651 121.337 129.341 124.038 123.573 124.038C117.804 124.038 113.495 121.337 113.495 118.921C113.495 116.506 117.804 113.805 123.573 113.805C129.341 113.805 133.651 116.506 133.651 118.921Z" fill="black"/>
<path d="M34.2656 109.154C26.0059 109.154 19.536 113.444 19.536 118.922C19.536 124.399 26.0059 128.69 34.2656 128.69C42.5252 128.69 48.9951 124.399 48.9951 118.922C48.9951 113.444 42.5252 109.154 34.2656 109.154ZM34.2656 124.038C28.4976 124.038 24.1873 121.337 24.1873 118.922C24.1873 116.506 28.4973 113.805 34.2656 113.805C40.0338 113.805 44.3438 116.506 44.3438 118.922C44.3438 121.337 40.0338 124.038 34.2656 124.038Z" fill="black"/>
<path d="M153.342 74.423H140.938C139.871 74.423 138.941 75.1494 138.682 76.1846L137.048 82.7195L125.622 50.345C123.897 45.4573 119.255 42.173 114.071 42.173H43.7671C38.5834 42.173 33.9417 45.4573 32.2166 50.3454L20.7902 82.7198L19.1564 76.1846C18.8974 75.1491 17.9674 74.423 16.9003 74.423H4.49622C3.21184 74.423 2.17041 75.4642 2.17041 76.7488V86.672C2.17041 87.9567 3.21184 88.9978 4.49622 88.9978H17.3422L9.4134 100.098C7.92104 102.187 7.13215 104.65 7.13215 107.217V136.287C7.13215 140.315 9.08719 143.895 12.0976 146.128C12.0967 146.156 12.0936 146.183 12.0936 146.21V153.653C12.0936 156.303 14.2498 158.459 16.9 158.459H31.7845C34.435 158.459 36.5909 156.303 36.5909 153.653V148.536H121.247V153.653C121.247 156.303 123.403 158.459 126.053 158.459H140.938C143.588 158.459 145.744 156.303 145.744 153.653V146.21C145.744 146.183 145.741 146.156 145.74 146.128C148.751 143.895 150.706 140.315 150.706 136.287V107.217C150.706 104.649 149.916 102.187 148.424 100.098L140.495 88.9978H153.342C154.626 88.9978 155.667 87.9567 155.667 86.672V76.7488C155.668 75.4638 154.627 74.423 153.342 74.423ZM6.82204 84.3459V79.0743H15.0842L16.402 84.3459H6.82204ZM58.9181 118.767H98.9203V124.038H58.9181V118.767ZM59.2836 114.115C60.2684 111.06 63.1371 108.844 66.5155 108.844H91.3232C94.7013 108.844 97.5703 111.06 98.5551 114.115H59.2836ZM58.9181 128.69H98.9203V133.961H58.9181V128.69ZM145.689 138.613C144.704 141.668 141.836 143.884 138.457 143.884H19.3808C16.0027 143.884 13.1338 141.668 12.149 138.613H145.689ZM31.9399 153.652C31.9399 153.738 31.8706 153.807 31.7849 153.807H16.9003C16.8145 153.807 16.7452 153.738 16.7452 153.652V148.536H19.3811H31.9399V153.652ZM141.093 148.536V153.652C141.093 153.737 141.024 153.807 140.938 153.807H126.054C125.968 153.807 125.898 153.737 125.898 153.652V148.536H138.457H141.093ZM146.055 107.217V133.961H103.572V116.441C103.572 109.687 98.0769 104.192 91.3232 104.192H66.5155C59.7615 104.192 54.2668 109.687 54.2668 116.441V133.961H11.7835V107.217C11.7835 105.624 12.2728 104.097 13.1985 102.801L23.0585 88.9975H108.688C109.973 88.9975 111.014 87.9564 111.014 86.6717C111.014 85.387 109.973 84.3459 108.688 84.3459H25.1488L36.6027 51.8931C37.6729 48.8617 40.5518 46.8243 43.7671 46.8243H114.072C117.287 46.8243 120.166 48.8614 121.236 51.8931L132.69 84.3459H118.611C117.327 84.3459 116.285 85.387 116.285 86.6717C116.285 87.9564 117.327 88.9975 118.611 88.9975H134.78L144.64 102.801C145.566 104.097 146.055 105.624 146.055 107.217ZM151.016 84.3459H141.436L142.754 79.0743H151.016V84.3459Z" fill="black"/>
<path d="M26.8231 106.363H41.7077C42.9921 106.363 44.0336 105.321 44.0336 104.037C44.0336 102.752 42.9921 101.711 41.7077 101.711H26.8231C25.5387 101.711 24.4973 102.752 24.4973 104.037C24.4973 105.321 25.5387 106.363 26.8231 106.363Z" fill="black"/>
<path d="M113.805 104.037C113.805 105.322 114.846 106.363 116.131 106.363H131.016C132.3 106.363 133.341 105.322 133.341 104.037C133.341 102.752 132.3 101.711 131.016 101.711H116.131C114.846 101.711 113.805 102.752 113.805 104.037Z" fill="black"/>
</g>
<defs>
<clipPath id="clip0">
<rect width="158.459" height="158.459" fill="white"/>
</clipPath>
</defs>
</svg>
