<svg width="159" height="159" viewBox="0 0 159 159" fill="none" xmlns="http://www.w3.org/2000/svg">
<g clip-path="url(#clip0)">
<path d="M13.205 50.1782H145.254V158.458H13.205V50.1782Z" fill="#737373"/>
<path d="M129.408 142.612H29.0505V116.203L39.6145 110.921H118.844L129.408 116.203V142.612Z" fill="#696578"/>
<path d="M109.822 110.921C92.2618 124.759 72.4555 135.478 51.2666 142.612H129.408V116.203L118.844 110.921H109.822Z" fill="#757089"/>
<path d="M2.64099 50.1782H13.2049V158.458H2.64099V50.1782Z" fill="#ECB700"/>
<path d="M145.254 50.1782H155.818V158.458H145.254V50.1782Z" fill="#ECB700"/>
<path d="M155.818 50.1782H2.64099V29.0504L79.2294 2.64062L155.818 29.0504V50.1782Z" fill="#ECB700"/>
<path d="M118.844 110.921H39.6146L48.7181 92.7139C49.6127 90.924 51.4416 89.793 53.4428 89.793H105.016C107.017 89.793 108.846 90.924 109.741 92.7139L118.844 110.921Z" fill="#87CED9"/>
<path d="M29.0505 142.613H44.8964V153.176C44.8964 154.635 43.7139 155.817 42.2554 155.817H31.6915C30.233 155.817 29.0505 154.635 29.0505 153.176V142.613Z" fill="#5E5E5F"/>
<path d="M113.562 142.613H129.408V153.176C129.408 154.635 128.225 155.817 126.767 155.817H116.203C114.744 155.817 113.562 154.635 113.562 153.176V142.613Z" fill="#5E5E5F"/>
<path d="M42.2557 121.485H50.1787C51.6371 121.485 52.8196 122.667 52.8196 124.126V129.408C52.8196 130.866 51.6371 132.049 50.1787 132.049H42.2557C40.7972 132.049 39.6147 130.866 39.6147 129.408V124.126C39.6147 122.667 40.7972 121.485 42.2557 121.485Z" fill="#DEDEDE"/>
<path d="M108.28 121.485H116.203C117.662 121.485 118.844 122.667 118.844 124.126V129.408C118.844 130.866 117.662 132.049 116.203 132.049H108.28C106.822 132.049 105.639 130.866 105.639 129.408V124.126C105.639 122.667 106.822 121.485 108.28 121.485Z" fill="#DEDEDE"/>
<path d="M13.205 50.1782H145.254V71.3061H13.205V50.1782Z" fill="#DEDEDE"/>
<path d="M66.0244 121.485H92.4342C93.8927 121.485 95.0752 122.667 95.0752 124.126V129.408C95.0752 130.866 93.8927 132.049 92.4342 132.049H66.0244C64.5659 132.049 63.3834 130.866 63.3834 129.408V124.126C63.3834 122.667 64.5659 121.485 66.0244 121.485Z" fill="#ECB700"/>
<path d="M13.205 58.1012H145.254V63.3832H13.205V58.1012Z" fill="#C7C7C7"/>
<path d="M109.741 92.7139C108.846 90.924 107.017 89.793 105.016 89.793H95.0752L73.9474 110.921H118.844L109.741 92.7139Z" fill="#71C4D1"/>
<path d="M29.0505 142.613H44.8964V147.894H29.0505V142.613Z" fill="#565657"/>
<path d="M113.562 142.613H129.408V147.894H113.562V142.613Z" fill="#565657"/>
<path d="M155.818 29.0504L116.697 15.5603C100.631 29.5945 82.6349 41.2524 63.2594 50.1783H155.818V29.0504Z" fill="#ECB700"/>
<path d="M156.679 26.5558L80.0903 0.146055C79.5324 -0.0464063 78.9263 -0.0464063 78.3684 0.146055L1.78002 26.5558C0.715045 26.9229 0.000330122 27.9252 0 29.0516V155.819C0 157.277 1.1825 158.46 2.64098 158.46H15.8459C17.3043 158.46 18.4868 157.277 18.4868 155.819V73.9482H139.972V155.819C139.972 157.277 141.154 158.46 142.613 158.46H155.818C157.276 158.46 158.459 157.277 158.459 155.819V29.0516C158.458 27.9252 157.744 26.9229 156.679 26.5558ZM13.2049 71.3072V153.178H5.28196V52.8204H13.2049V71.3072ZM139.972 68.6662H18.4868V63.3843H139.972V68.6662ZM139.972 58.1023H18.4868V52.8204H139.972V58.1023ZM153.177 153.178H145.254V52.8204H153.177V153.178ZM153.177 47.5384H5.28196V30.9346L79.2294 5.43593L153.177 30.9346V47.5384Z" fill="black"/>
<path d="M116.203 158.458H126.767C129.684 158.458 132.049 156.094 132.049 153.176V116.203C132.055 115.197 131.488 114.275 130.588 113.826L120.817 108.94L112.102 91.5096C110.761 88.8273 108.014 87.1381 105.016 87.1519H53.4429C50.4394 87.142 47.6918 88.8402 46.3571 91.5307L37.6419 108.961L27.8703 113.847C26.9773 114.293 26.4124 115.204 26.4098 116.203V153.176C26.4098 156.094 28.7745 158.458 31.6917 158.458H42.2557C45.173 158.458 47.5376 156.094 47.5376 153.176V145.253H110.921V153.176C110.921 156.093 113.286 158.458 116.203 158.458ZM126.767 153.176H116.203V145.253H126.767V153.176ZM51.0818 93.8944C51.5258 92.9971 52.4416 92.4306 53.4429 92.4339H105.016C106.017 92.4306 106.933 92.9971 107.377 93.8944L114.571 108.28H43.8878L51.0818 93.8944ZM42.2557 153.176H31.6917V145.253H42.2557V153.176ZM44.8966 139.972H31.6917V117.835L40.238 113.562H118.221L126.767 117.835V139.972H44.8966Z" fill="black"/>
<path d="M50.1786 118.844H42.2557C39.3384 118.844 36.9738 121.208 36.9738 124.126V129.408C36.9738 132.325 39.3384 134.69 42.2557 134.69H50.1786C53.0959 134.69 55.4606 132.325 55.4606 129.408V124.126C55.4606 121.208 53.0959 118.844 50.1786 118.844ZM42.2557 129.408V124.126H50.1786V129.408H42.2557Z" fill="black"/>
<path d="M121.485 129.408V124.126C121.485 121.208 119.12 118.844 116.203 118.844H108.28C105.363 118.844 102.998 121.208 102.998 124.126V129.408C102.998 132.325 105.363 134.69 108.28 134.69H116.203C119.12 134.69 121.485 132.325 121.485 129.408ZM108.28 124.126H116.203V129.408H108.28V124.126Z" fill="black"/>
<path d="M92.4343 118.844H66.0245C63.1072 118.844 60.7426 121.208 60.7426 124.126V129.408C60.7426 132.325 63.1072 134.69 66.0245 134.69H92.4343C95.3516 134.69 97.7162 132.325 97.7162 129.408V124.126C97.7162 121.208 95.3516 118.844 92.4343 118.844ZM66.0245 129.408V124.126H92.4343V129.408H66.0245Z" fill="black"/>
</g>
<defs>
<clipPath id="clip0">
<rect width="158.459" height="158.459" fill="white"/>
</clipPath>
</defs>
</svg>
