<svg width="178" height="51" viewBox="0 0 178 51" fill="none" xmlns="http://www.w3.org/2000/svg">
<path d="M0 0.0368652H7.9994L22.4093 20.8024L36.4904 0.0368652H44.6542V42.9378H37.4219V10.3375L24.2722 29.7881H20.382L7.17754 10.3375V42.9378H0V0.0368652Z" fill="#ECB700"/>
<path d="M47.8252 0.0871582H55.2219V15.8668L70.4536 0.0871582H79.2201L63.7692 16.0312C65.0476 16.1773 66.2165 16.4878 67.2758 16.9626C68.3351 17.4375 69.2848 18.3141 70.1249 19.5925L85.4662 42.9333L77.2476 43.6455L65.7417 25.3455C64.9015 24.0306 64.0249 23.1174 63.1117 22.606C62.2351 22.0581 61.2123 21.7842 60.0435 21.7842H55.2219V42.9881H47.8252V0.0871582Z" fill="#0A0A0A"/>
<path d="M30.9945 0.258301H27.8931L22.3625 8.68356L16.7025 0.258301H13.7046L16.9351 5.27211L21.5613 12.3276H23.0861L26.3942 7.26212L26.3683 7.28796L30.9945 0.258301Z" fill="#0A0A0A"/>
<path d="M90.4619 0.258301H88.6528V43.9353H90.4619V0.258301Z" fill="#ECB700"/>
<path d="M96.854 0H100.163L106.124 8.59048L111.95 0H115.327V17.7476H112.335V4.26124L106.895 12.3077H105.286L99.8233 4.26124V17.7476H96.854V0Z" fill="#0A0A0A"/>
<path d="M127.012 17.0903C126.483 17.3774 125.879 17.6041 125.199 17.7703C124.519 17.9365 123.733 18.0196 122.841 18.0196C122.177 18.0196 121.504 17.9365 120.824 17.7703C120.159 17.6192 119.555 17.3698 119.011 17.0223C118.482 16.6596 118.044 16.1988 117.696 15.6397C117.364 15.0654 117.198 14.3703 117.198 13.5544C117.198 12.7384 117.371 12.0357 117.719 11.4464C118.082 10.8571 118.558 10.3735 119.147 9.99578C119.736 9.61801 120.409 9.33846 121.164 9.15713C121.92 8.9758 122.69 8.88514 123.476 8.88514C124.05 8.88514 124.625 8.93047 125.199 9.02113C125.788 9.09669 126.34 9.20246 126.853 9.33846V8.81714C126.853 8.18249 126.755 7.68383 126.559 7.32117C126.377 6.9434 126.136 6.6563 125.833 6.45986C125.531 6.24831 125.176 6.11231 124.768 6.05187C124.375 5.99142 123.967 5.9612 123.544 5.9612C122.925 5.9612 122.275 6.0292 121.595 6.1652C120.93 6.30119 120.197 6.54297 119.396 6.89051V4.53323C120.122 4.26124 120.847 4.07235 121.572 3.96658C122.313 3.84569 123.023 3.78525 123.703 3.78525C124.489 3.78525 125.221 3.8608 125.901 4.01191C126.597 4.16302 127.193 4.4199 127.692 4.78256C128.206 5.14522 128.606 5.63632 128.893 6.25586C129.196 6.86029 129.347 7.63094 129.347 8.56781V17.7476H127.012V17.0903ZM119.85 13.5544C119.85 13.9624 119.948 14.3099 120.144 14.597C120.341 14.8841 120.605 15.1183 120.938 15.2997C121.27 15.481 121.648 15.617 122.071 15.7077C122.509 15.7983 122.955 15.8437 123.408 15.8437C124.043 15.8437 124.67 15.7681 125.289 15.617C125.924 15.4508 126.445 15.2543 126.853 15.0277V11.5597C126.642 11.4691 126.226 11.3633 125.607 11.2424C125.002 11.1215 124.345 11.0611 123.635 11.0611C123.181 11.0611 122.728 11.0989 122.275 11.1744C121.821 11.25 121.414 11.386 121.051 11.5824C120.688 11.7637 120.394 12.0206 120.167 12.3531C119.955 12.6704 119.85 13.0708 119.85 13.5544Z" fill="#0A0A0A"/>
<path d="M140.482 6.91318C139.772 6.61097 139.084 6.37675 138.419 6.21053C137.754 6.04431 137.074 5.9612 136.379 5.9612C135.624 5.9612 135.012 6.08964 134.543 6.34653C134.075 6.60341 133.841 6.92829 133.841 7.32117C133.841 7.69894 134.037 7.9936 134.43 8.20515C134.823 8.4167 135.306 8.61314 135.881 8.79447C136.47 8.96069 137.105 9.14202 137.784 9.33846C138.464 9.51979 139.092 9.78423 139.666 10.1318C140.255 10.4793 140.746 10.9326 141.139 11.4917C141.532 12.0508 141.728 12.7762 141.728 13.6677C141.728 14.2872 141.592 14.869 141.32 15.413C141.064 15.9419 140.686 16.4028 140.187 16.7956C139.704 17.1734 139.114 17.4756 138.419 17.7023C137.724 17.9138 136.946 18.0196 136.085 18.0196C135.133 18.0196 134.203 17.876 133.297 17.5889C132.39 17.3018 131.483 16.9165 130.577 16.433L131.665 14.393C132.511 14.8161 133.297 15.1637 134.022 15.4357C134.762 15.7077 135.45 15.8437 136.085 15.8437C136.553 15.8437 136.969 15.7832 137.331 15.6623C137.694 15.5414 137.996 15.3828 138.238 15.1863C138.495 14.9748 138.684 14.7406 138.804 14.4837C138.94 14.2268 139.008 13.9548 139.008 13.6677C139.008 13.2446 138.895 12.8895 138.668 12.6024C138.442 12.3153 138.14 12.0735 137.762 11.8771C137.399 11.6806 136.976 11.5069 136.493 11.3557C136.024 11.2046 135.541 11.0535 135.042 10.9024C134.558 10.7513 134.075 10.5851 133.591 10.4038C133.123 10.2073 132.7 9.98067 132.322 9.72378C131.959 9.45179 131.665 9.12691 131.438 8.74914C131.211 8.35626 131.098 7.88027 131.098 7.32117C131.098 6.77718 131.242 6.29364 131.529 5.87054C131.816 5.43232 132.201 5.06211 132.685 4.7599C133.168 4.44257 133.727 4.2008 134.362 4.03458C134.997 3.86836 135.669 3.78525 136.379 3.78525C137.316 3.78525 138.17 3.88347 138.94 4.07991C139.726 4.26124 140.512 4.51057 141.298 4.82789L140.482 6.91318Z" fill="#0A0A0A"/>
<path d="M144.062 4.12524V2.13062L146.555 1.4053V4.12524H151.451V6.27853H146.555V14.121C146.555 14.7557 146.736 15.1863 147.099 15.413C147.462 15.6397 147.907 15.753 148.436 15.753C148.89 15.753 149.381 15.6472 149.91 15.4357C150.454 15.2241 150.945 14.9748 151.383 14.6877L152.539 16.5463C151.859 16.9694 151.096 17.3094 150.25 17.5663C149.419 17.8081 148.61 17.9289 147.824 17.9289C147.341 17.9289 146.872 17.8685 146.419 17.7476C145.966 17.6116 145.565 17.4227 145.218 17.181C144.87 16.9241 144.591 16.6067 144.379 16.229C144.168 15.8361 144.062 15.3903 144.062 14.8917V6.27853H142.248V4.12524H144.062Z" fill="#0A0A0A"/>
<path d="M164.102 8.25048C163.921 7.88783 163.686 7.56294 163.399 7.27584C163.112 6.98873 162.787 6.74696 162.425 6.55052C162.062 6.35408 161.677 6.21053 161.269 6.11986C160.876 6.01409 160.491 5.9612 160.113 5.9612C159.75 5.9612 159.372 6.00653 158.979 6.0972C158.602 6.17275 158.224 6.30875 157.846 6.50519C157.484 6.68652 157.144 6.92074 156.826 7.20784C156.524 7.49495 156.275 7.84249 156.078 8.25048H164.102ZM155.625 10.4038V10.9024C155.625 11.7184 155.776 12.4362 156.078 13.0557C156.396 13.6753 156.788 14.1966 157.257 14.6197C157.725 15.0277 158.224 15.3374 158.753 15.549C159.297 15.7454 159.795 15.8437 160.249 15.8437C160.853 15.8437 161.382 15.7983 161.835 15.7077C162.304 15.6019 162.727 15.4583 163.105 15.277C163.483 15.0806 163.83 14.8463 164.147 14.5743C164.465 14.2872 164.782 13.9624 165.099 13.5997L166.867 14.937C166.49 15.3903 166.082 15.8059 165.643 16.1836C165.205 16.5614 164.714 16.8863 164.17 17.1583C163.641 17.4303 163.052 17.6418 162.402 17.7929C161.767 17.944 161.05 18.0196 160.249 18.0196C159.357 18.0196 158.473 17.8609 157.597 17.5436C156.72 17.2112 155.935 16.7427 155.24 16.1383C154.544 15.5188 153.978 14.7708 153.54 13.8944C153.117 13.0179 152.905 12.0206 152.905 10.9024C152.905 9.79934 153.094 8.80958 153.472 7.93316C153.864 7.05673 154.386 6.31631 155.036 5.71187C155.7 5.09233 156.464 4.61634 157.325 4.28391C158.201 3.95147 159.131 3.78525 160.113 3.78525C161.186 3.78525 162.153 3.96658 163.014 4.32924C163.89 4.67679 164.638 5.16033 165.258 5.77987C165.878 6.3843 166.354 7.08695 166.686 7.88783C167.018 8.6887 167.185 9.52735 167.185 10.4038H155.625Z" fill="#0A0A0A"/>
<path d="M171.446 17.7476H168.953V4.12524H171.446V5.39455C171.779 5.06211 172.126 4.79767 172.489 4.60123C172.867 4.38968 173.245 4.22346 173.622 4.10258C174.015 3.98169 174.393 3.89858 174.756 3.85325C175.133 3.80792 175.496 3.78525 175.844 3.78525H176.093V5.9612H175.549C174.763 5.9612 174.015 6.13498 173.305 6.48252C172.595 6.81496 171.975 7.32117 171.446 8.00116V17.7476Z" fill="#0A0A0A"/>
<path d="M99.5109 27.3081V33.4424L105.371 27.3081H108.744L102.799 33.4424C103.291 33.4987 103.748 33.6181 104.17 33.8008C104.591 33.9835 104.964 34.3208 105.287 34.8127L111.147 43.7928L107.985 44.0669L103.558 37.0261C103.235 36.5202 102.898 36.1688 102.546 35.9721C102.209 35.7613 101.816 35.6559 101.366 35.6559H99.5109V43.8139H96.665V27.3081H99.5109Z" fill="#0A0A0A"/>
<path d="M114.787 31.1447V31.8193C115.237 31.482 115.736 31.2361 116.284 31.0815C116.846 30.9128 117.394 30.8285 117.928 30.8285C118.827 30.8285 119.671 30.9831 120.458 31.2923C121.245 31.5874 121.926 32.023 122.502 32.5992C123.079 33.1614 123.528 33.857 123.852 34.6862C124.189 35.5013 124.358 36.4218 124.358 37.4477C124.358 38.4736 124.189 39.3941 123.852 40.2092C123.514 41.0243 123.051 41.7199 122.46 42.2961C121.884 42.8583 121.195 43.2939 120.394 43.6031C119.607 43.9123 118.764 44.0669 117.865 44.0669C117.275 44.0669 116.712 43.9896 116.178 43.835C115.658 43.6804 115.195 43.5047 114.787 43.308V50.0747H112.468V31.1447H114.787ZM114.787 41.0946C114.998 41.221 115.202 41.3475 115.398 41.474C115.595 41.5864 115.806 41.6848 116.031 41.7691C116.256 41.8535 116.502 41.9237 116.769 41.9799C117.036 42.0221 117.338 42.0432 117.675 42.0432C118.265 42.0432 118.813 41.9307 119.319 41.7059C119.825 41.481 120.261 41.1719 120.626 40.7784C121.006 40.3708 121.301 39.886 121.512 39.3238C121.722 38.7476 121.828 38.1223 121.828 37.4477C121.828 36.7591 121.715 36.1337 121.491 35.5715C121.28 35.0094 120.985 34.5316 120.605 34.1381C120.226 33.7305 119.783 33.4143 119.277 33.1895C118.771 32.9646 118.237 32.8522 117.675 32.8522C117.085 32.8522 116.537 32.9787 116.031 33.2316C115.525 33.4706 115.11 33.7446 114.787 34.0538V41.0946Z" fill="#0A0A0A"/>
<path d="M135.87 34.9813C135.701 34.644 135.483 34.3419 135.216 34.0749C134.949 33.8078 134.647 33.583 134.31 33.4003C133.973 33.2176 133.614 33.0841 133.235 32.9998C132.87 32.9014 132.511 32.8522 132.16 32.8522C131.823 32.8522 131.471 32.8944 131.106 32.9787C130.754 33.0489 130.403 33.1754 130.052 33.3581C129.715 33.5268 129.398 33.7446 129.103 34.0116C128.822 34.2786 128.59 34.6019 128.408 34.9813H135.87ZM127.986 36.9839V37.4477C127.986 38.2066 128.126 38.8741 128.408 39.4503C128.703 40.0265 129.068 40.5113 129.504 40.9048C129.939 41.2843 130.403 41.5724 130.895 41.7691C131.401 41.9518 131.865 42.0432 132.286 42.0432C132.848 42.0432 133.34 42.001 133.762 41.9167C134.198 41.8183 134.591 41.6848 134.942 41.5162C135.294 41.3335 135.617 41.1156 135.912 40.8627C136.207 40.5957 136.502 40.2935 136.797 39.9562L138.442 41.2C138.09 41.6216 137.711 42.008 137.303 42.3594C136.896 42.7107 136.439 43.0129 135.933 43.2658C135.441 43.5188 134.893 43.7155 134.289 43.8561C133.699 43.9966 133.031 44.0669 132.286 44.0669C131.457 44.0669 130.635 43.9193 129.82 43.6242C129.005 43.315 128.274 42.8794 127.628 42.3172C126.981 41.741 126.454 41.0454 126.047 40.2303C125.653 39.4152 125.456 38.4876 125.456 37.4477C125.456 36.4218 125.632 35.5013 125.983 34.6862C126.349 33.8711 126.834 33.1825 127.438 32.6203C128.056 32.0441 128.766 31.6014 129.567 31.2923C130.382 30.9831 131.246 30.8285 132.16 30.8285C133.158 30.8285 134.057 30.9971 134.858 31.3344C135.673 31.6577 136.369 32.1074 136.945 32.6836C137.521 33.2457 137.964 33.8992 138.273 34.644C138.582 35.3889 138.737 36.1688 138.737 36.9839H127.986Z" fill="#0A0A0A"/>
<path d="M142.152 31.1447H151.322V41.8113C151.73 41.8113 152.053 41.9518 152.292 42.2329C152.545 42.4999 152.671 42.8512 152.671 43.2869C152.671 43.4977 152.636 43.7436 152.566 44.0247L151.47 47.777L149.235 47.5451L150.331 43.8139H141.667L142.785 47.5451L140.55 47.777L139.454 44.0247C139.426 43.9123 139.405 43.7999 139.391 43.6874C139.377 43.575 139.37 43.4696 139.37 43.3712C139.37 42.9075 139.503 42.535 139.77 42.254C140.051 41.9589 140.41 41.8113 140.845 41.8113L143.712 33.1473H142.152V31.1447ZM149.003 33.1473H146.706C146.425 33.1473 146.2 33.2106 146.031 33.337C145.862 33.4495 145.743 33.597 145.673 33.7797L143.101 41.8113H149.003V33.1473Z" fill="#0A0A0A"/>
<path d="M156.209 31.1447V38.3963L162.997 31.1447H165.337V43.8139H162.997V34.0116L156.209 41.2632V43.8139H153.89V31.1447H156.209Z" fill="#0A0A0A"/>
<path d="M171.212 43.8139V33.1473H166.743V31.1447H178V33.1473H173.531V43.8139H171.212Z" fill="#0A0A0A"/>
</svg>
